<?xml version="1.0" encoding="UTF-8" standalone="no"?>
<!-- Created with Inkscape (http://www.inkscape.org/) -->

<svg
   xmlns:dc="http://purl.org/dc/elements/1.1/"
   xmlns:cc="http://creativecommons.org/ns#"
   xmlns:rdf="http://www.w3.org/1999/02/22-rdf-syntax-ns#"
   xmlns:svg="http://www.w3.org/2000/svg"
   xmlns="http://www.w3.org/2000/svg"
   xmlns:sodipodi="http://sodipodi.sourceforge.net/DTD/sodipodi-0.dtd"
   xmlns:inkscape="http://www.inkscape.org/namespaces/inkscape"
   width="1006.7488"
   height="350.58533"
   id="svg2"
   version="1.1"
   inkscape:version="0.92.2 5c3e80d, 2017-08-06"
   sodipodi:docname="mcloc_blue_base.svg">
  <defs
     id="defs4" />
  <sodipodi:namedview
     id="base"
     pagecolor="#ffffff"
     bordercolor="#666666"
     borderopacity="1.0"
     inkscape:pageopacity="0.0"
     inkscape:pageshadow="2"
     inkscape:zoom="0.56586625"
     inkscape:cx="-151.8105"
     inkscape:cy="68.463941"
     inkscape:document-units="px"
     inkscape:current-layer="layer1"
     showgrid="false"
     inkscape:window-width="2364"
     inkscape:window-height="1170"
     inkscape:window-x="1079"
     inkscape:window-y="151"
     inkscape:window-maximized="0"
     inkscape:snap-page="false"
     fit-margin-top="20"
     fit-margin-left="40"
     fit-margin-right="40"
     fit-margin-bottom="20"
     showguides="false"
     inkscape:snap-global="true"
     inkscape:snap-grids="false" />
  <metadata
     id="metadata7">
    <rdf:RDF>
      <cc:Work
         rdf:about="">
        <dc:format>image/svg+xml</dc:format>
        <dc:type
           rdf:resource="http://purl.org/dc/dcmitype/StillImage" />
        <dc:title></dc:title>
      </cc:Work>
    </rdf:RDF>
  </metadata>
  <g
     inkscape:label="Layer 1"
     inkscape:groupmode="layer"
     id="layer1"
     transform="translate(270.53322,-82.726445)">
    <g
       id="g4179"
       transform="translate(-678.78417,65.389501)"
       style="fill:#0000e7;fill-opacity:1">
      <rect
         transform="scale(1,-1)"
         y="-326.20071"
         x="523.79211"
         height="86.696999"
         width="38.700001"
         id="rect7097"
         style="fill:#0000e7;fill-opacity:1" />
      <path
         id="path7099"
         d="m 505.13391,185.39967 a 55.541336,55.541336 0 0 0 -29.08203,7.42579 55.541336,55.541336 0 0 0 -27.76954,48.0996 h 38.27344 a 18.635582,18.635582 0 0 1 -0.0469,-0.92968 18.635582,18.635582 0 0 1 18.63672,-18.63672 18.635582,18.635582 0 0 1 18.63476,18.63672 18.635582,18.635582 0 0 1 -0.0332,0.92968 h 35.61719 a 55.541336,55.541336 0 0 0 -27.76954,-48.0996 55.541336,55.541336 0 0 0 -26.46093,-7.42579 z"
         style="fill:#0000e7;fill-opacity:1"
         inkscape:connector-curvature="0" />
      <path
         id="path7101"
         d="m 583.13391,185.39967 a 55.541336,55.541336 0 0 0 -29.08203,7.42579 55.541336,55.541336 0 0 0 -27.76954,48.0996 h 36.27344 a 18.635582,18.635582 0 0 1 -0.0469,-0.92968 18.635582,18.635582 0 0 1 18.63672,-18.63672 18.635582,18.635582 0 0 1 18.63476,18.63672 18.635582,18.635582 0 0 1 -0.0332,0.92968 h 37.61719 a 55.541336,55.541336 0 0 0 -27.76954,-48.0996 55.541336,55.541336 0 0 0 -26.46093,-7.42579 z"
         style="fill:#0000e7;fill-opacity:1"
         inkscape:connector-curvature="0" />
      <rect
         transform="scale(1,-1)"
         style="fill:#0000e7;fill-opacity:1"
         id="rect7103"
         width="37.599998"
         height="86.800003"
         x="599.73419"
         y="-327.68396" />
      <rect
         transform="scale(1,-1)"
         y="-326.45911"
         x="448.31711"
         height="86.524002"
         width="38.154999"
         id="rect7105"
         style="fill:#0000e7;fill-opacity:1" />
      <circle
         transform="scale(1,-1)"
         id="path7107"
         style="fill:#0000e7;fill-opacity:1"
         cx="467.40329"
         cy="-328.25317"
         r="19.15234" />
      <circle
         style="fill:#0000e7;fill-opacity:1"
         id="path7113"
         transform="scale(1,-1)"
         cx="543.27411"
         cy="-328.38235"
         r="19.28153" />
      <circle
         transform="scale(1,-1)"
         id="path7115"
         style="fill:#0000e7;fill-opacity:1"
         cx="618.62817"
         cy="-329.02832"
         r="18.893961" />
    </g>
    <g
       id="g3031"
       transform="matrix(0.9214893,0,0,0.9214893,766.55034,424.43776)"
       style="fill:#0000f7;fill-opacity:1">
      <path
         id="path3022"
         transform="translate(-35.873264,7.1128768)"
         d="m -723.875,-201.3125 c -24.57078,0.5363 -48.85012,11.05819 -66.25,31.0625 -32.75272,37.65517 -28.78017,94.716031 8.875,127.46875 37.65517,32.752719 94.74728,28.780167 127.5,-8.875 l -27.21875,-23.65625 c -19.59983,22.113753 -53.40632,24.340932 -75.75,4.90625 -22.47292,-19.547094 -24.82834,-53.58958 -5.28125,-76.0625 19.54709,-22.47292 53.58958,-24.85959 76.0625,-5.3125 1.85691,1.61516 3.5997,3.36557 5.21875,5.21875 L -653.53125,-170 c -2.81534,-3.26287 -5.84211,-6.2967 -9.09375,-9.125 -17.65086,-15.35284 -39.5699,-22.6607 -61.25,-22.1875 z"
         style="fill:#0000f7;fill-opacity:1;stroke-width:0;stroke-miterlimit:4;stroke-dasharray:none"
         inkscape:connector-curvature="0" />
      <circle
         r="19.366388"
         cy="157.48892"
         cx="199.87573"
         style="fill:#0000f7;fill-opacity:1"
         id="path3026"
         transform="matrix(-0.94452565,0,0,-0.94452565,-516.79899,95.036297)" />
      <circle
         r="19.366388"
         cy="157.48892"
         cx="199.87573"
         transform="matrix(-0.94452565,0,0,-0.94452565,-516.79899,-4.963703)"
         id="path3028"
         style="fill:#0000f7;fill-opacity:1" />
    </g>
    <path
       id="path3043"
       d="m 336.30228,413.22115 c 44.77236,-1.13432 80.71875,-37.79803 80.71875,-82.84375 0,-45.76073 -37.11427,-82.84375 -82.875,-82.84375 -45.76073,0 -82.84375,37.08302 -82.84375,82.84375 0,45.76073 37.08302,82.84375 82.84375,82.84375 0.71501,0 1.44558,0.018 2.15625,0 z m -2.15625,-34.25 c -24.62043,0 -48.5625,-24.97332 -48.5625,-49.59375 0,-24.62043 23.94207,-47.5625 48.5625,-47.5625 24.62043,0 48.59375,23.94207 48.59375,48.5625 0,24.62043 -23.97332,48.59375 -48.59375,48.59375 z"
       style="fill:#0000ff;fill-opacity:1"
       inkscape:connector-curvature="0"
       sodipodi:nodetypes="csssscsssss" />
    <g
       transform="matrix(0.96496422,0,0,0.94208567,142.52556,426.8535)"
       id="g1163"
       style="fill:#0000ff;fill-opacity:1">
      <path
         transform="scale(1,-1)"
         style="fill:#0000ff;fill-opacity:1"
         d="m 34.912132,34.484112 h 38.30468 V 324.27641 h -38.30468 z"
         id="rect1157"
         inkscape:connector-curvature="0" />
      <path
         transform="matrix(0.98894742,0,0,-0.98894742,-143.60212,120.40014)"
         style="fill:#0000ff;fill-opacity:1"
         d="m 219.24212,157.48892 a 19.366388,19.366388 0 0 1 -19.36639,19.36639 19.366388,19.366388 0 0 1 -19.36639,-19.36639 19.366388,19.366388 0 0 1 19.36639,-19.36639 19.366388,19.366388 0 0 1 19.36639,19.36639 z"
         id="circle1159"
         inkscape:connector-curvature="0" />
      <path
         transform="matrix(0.98894742,0,0,-0.98894742,-143.60212,-169.15203)"
         style="fill:#0000ff;fill-opacity:1"
         d="m 219.24212,157.48892 a 19.366388,19.366388 0 0 1 -19.36639,19.36639 19.366388,19.366388 0 0 1 -19.36639,-19.36639 19.366388,19.366388 0 0 1 19.36639,-19.36639 19.366388,19.366388 0 0 1 19.36639,19.36639 z"
         id="circle1161"
         inkscape:connector-curvature="0" />
    </g>
    <g
       transform="matrix(0.9214893,0,0,0.9214893,1219.5503,424.43776)"
       id="g1192"
       style="fill:#0000ff;fill-opacity:1">
      <path
         inkscape:connector-curvature="0"
         style="fill:#0000ff;fill-opacity:1;stroke-width:0;stroke-miterlimit:4;stroke-dasharray:none"
         d="m -723.875,-201.3125 c -24.57078,0.5363 -48.85012,11.05819 -66.25,31.0625 -32.75272,37.65517 -28.78017,94.716031 8.875,127.46875 37.65517,32.752719 94.74728,28.780167 127.5,-8.875 l -27.21875,-23.65625 c -19.59983,22.113753 -53.40632,24.340932 -75.75,4.90625 -22.47292,-19.547094 -24.82834,-53.58958 -5.28125,-76.0625 19.54709,-22.47292 53.58958,-24.85959 76.0625,-5.3125 1.85691,1.61516 3.5997,3.36557 5.21875,5.21875 L -653.53125,-170 c -2.81534,-3.26287 -5.84211,-6.2967 -9.09375,-9.125 -17.65086,-15.35284 -39.5699,-22.6607 -61.25,-22.1875 z"
         transform="translate(-35.873264,7.1128768)"
         id="path1186" />
      <circle
         transform="matrix(-0.94452565,0,0,-0.94452565,-516.79899,95.036297)"
         id="circle1188"
         style="fill:#0000ff;fill-opacity:1"
         cx="199.87573"
         cy="157.48892"
         r="19.366388" />
      <circle
         style="fill:#0000ff;fill-opacity:1"
         id="circle1190"
         transform="matrix(-0.94452565,0,0,-0.94452565,-516.79899,-4.963703)"
         cx="199.87573"
         cy="157.48892"
         r="19.366388" />
    </g>
  </g>
</svg>
